Coordinates
version=1
nRows=14
nColumns=40
inDegrees=yes

Units are S.I. units (second, meters, Newtons, ...)
If the header above contains a line with 'inDegrees', this indicates whether rotational values are in degrees (yes) or radians (no).

endheader
time	pelvis_tilt	pelvis_list	pelvis_rotation	pelvis_tx	pelvis_ty	pelvis_tz	hip_flexion_r	hip_adduction_r	hip_rotation_r	knee_angle_r	knee_angle_r_beta	ankle_angle_r	subtalar_angle_r	mtp_angle_r	hip_flexion_l	hip_adduction_l	hip_rotation_l	knee_angle_l	knee_angle_l_beta	ankle_angle_l	subtalar_angle_l	mtp_angle_l	lumbar_extension	lumbar_bending	lumbar_rotation	arm_flex_r	arm_add_r	arm_rot_r	elbow_flex_r	pro_sup_r	wrist_flex_r	wrist_dev_r	arm_flex_l	arm_add_l	arm_rot_l	elbow_flex_l	pro_sup_l	wrist_flex_l	wrist_dev_l
      3.90000000	    -35.49500052	     -0.71602754	      0.15661614	     -0.38811298	      0.62304373	     -0.89117908	     94.46143170	    -11.35383349	     -2.70943445	     95.90966218	      1.67393939	     37.69150986	      0.00000000	      0.00000000	     94.29020258	    -16.40844197	     -0.15250902	     94.27796270	      1.64546086	     36.10993778	      0.00000000	      0.00000000	    -24.63074951	    -15.74796450	    -40.35462789	     32.84798748	    -27.39203056	     89.48631726	     78.33991863	     88.46745988	      0.00000000	      0.00000000	    -70.34668133	    -15.18556859	    -17.11931338	    115.59279509	     88.01819659	      0.00000000	      0.00000000
      3.90500000	    -35.58497627	     -0.67809466	      0.27760405	     -0.38834924	      0.62280002	     -0.89150001	     94.59453961	    -11.48543690	     -2.61974558	     95.94517923	      1.67455928	     37.66025625	      0.00000000	      0.00000000	     94.38896727	    -16.25537231	     -0.20097379	     94.25792943	      1.64511121	     36.02714880	      0.00000000	      0.00000000	    -24.60406699	    -15.75582101	    -40.59797204	     32.90376958	    -27.34916371	     89.48831759	     78.29145277	     88.53185413	      0.00000000	      0.00000000	    -70.43510533	    -15.01140050	    -17.17986547	    115.63521744	     87.92969550	      0.00000000	      0.00000000
      3.91000000	    -36.19946702	     -0.84288461	      0.95488660	     -0.38982526	      0.62147143	     -0.89306122	     95.35482743	    -12.24630439	     -2.64676926	     96.03916794	      1.67619969	     37.57759038	      0.00000000	      0.00000000	     95.23738985	    -15.33754093	      0.02751200	     94.12546075	      1.64279920	     35.85132604	      0.00000000	      0.00000000	    -24.07157168	    -15.28318775	    -41.20011137	     32.96483339	    -27.50637542	     89.49476630	     78.47128408	     88.50068113	      0.00000000	      0.00000000	    -70.45946524	    -14.84794420	    -17.09653734	    115.69856688	     87.98799024	      0.00000000	      0.00000000
      3.91500000	    -36.16049991	     -0.81158215	      0.95924127	     -0.38975480	      0.62144584	     -0.89308387	     95.34532290	    -12.24272637	     -2.59305053	     96.07918523	      1.67689812	     37.53161429	      0.00000000	      0.00000000	     95.18552896	    -15.33927445	     -0.01346509	     94.13965718	      1.64304697	     35.79673691	      0.00000000	      0.00000000	    -24.14482036	    -15.34380280	    -41.31568201	     32.98941054	    -27.43500885	     89.49747940	     78.43076320	     88.55299941	      0.00000000	      0.00000000	    -70.53831273	    -14.69096861	    -17.16827217	    115.69019672	     87.87318497	      0.00000000	      0.00000000
      3.92000000	    -36.25835400	     -0.91513861	      0.83415671	     -0.38991077	      0.62125260	     -0.89279008	     95.42222636	    -12.05514489	     -2.68601868	     96.02697375	      1.67598686	     37.53419079	      0.00000000	      0.00000000	     95.36450837	    -15.52610996	      0.08350567	     94.15719670	      1.64335310	     35.72396185	      0.00000000	      0.00000000	    -23.92353520	    -15.29493998	    -41.08748849	     32.96567084	    -27.50118112	     89.48948138	     78.48999554	     88.61379123	      0.00000000	      0.00000000	    -70.45057450	    -14.87440409	    -16.99770021	    115.58630920	     87.86648055	      0.00000000	      0.00000000
      3.92500000	    -36.01307751	     -0.85612786	      0.88174866	     -0.38960861	      0.62149374	     -0.89290161	     95.16018492	    -12.13266616	     -2.64350738	     96.08304589	      1.67696551	     37.74453613	      0.00000000	      0.00000000	     95.06394173	    -15.48804345	     -0.00695340	     94.19536445	      1.64401925	     35.95676601	      0.00000000	      0.00000000	    -24.29376965	    -15.36477082	    -41.32482843	     33.02809907	    -27.35612771	     89.49965343	     78.36351924	     88.51903014	      0.00000000	      0.00000000	    -70.57630148	    -14.63984103	    -17.18854320	    115.70710435	     87.84174998	      0.00000000	      0.00000000
      3.93000000	    -36.08595823	     -0.86437471	      0.94986424	     -0.38979996	      0.62130028	     -0.89308853	     95.27934899	    -12.21374804	     -2.63645653	     96.11372673	      1.67750099	     37.64773985	      0.00000000	      0.00000000	     95.16735224	    -15.41092426	     -0.00509873	     94.19281218	      1.64397470	     35.89874809	      0.00000000	      0.00000000	    -24.19890113	    -15.33775964	    -41.38698823	     33.03583406	    -27.38342163	     89.49891204	     78.43152338	     88.48552761	      0.00000000	      0.00000000	    -70.58584283	    -14.70149674	    -17.14114027	    115.66338085	     88.01708782	      0.00000000	      0.00000000
      3.93500000	    -36.07303845	     -0.88136088	      1.06026574	     -0.38986087	      0.62122599	     -0.89338310	     95.27808714	    -12.33299636	     -2.61592368	     96.14710059	      1.67808347	     37.64207586	      0.00000000	      0.00000000	     95.17252169	    -15.30180806	     -0.03126129	     94.19921288	      1.64408642	     35.86689315	      0.00000000	      0.00000000	    -24.24572774	    -15.28014024	    -41.50958133	     33.06138685	    -27.37516663	     89.50072653	     78.42043711	     88.48885097	      0.00000000	      0.00000000	    -70.57416555	    -14.65808337	    -17.14126140	    115.69819416	     88.03476342	      0.00000000	      0.00000000
      3.94000000	    -35.98897363	     -0.82088897	      0.96492120	     -0.38984115	      0.62129268	     -0.89324829	     95.21780842	    -12.19106818	     -2.51482551	     96.13706410	      1.67790830	     37.61473579	      0.00000000	      0.00000000	     95.07474644	    -15.43543736	     -0.11691638	     94.23340353	      1.64468316	     35.85129058	      0.00000000	      0.00000000	    -24.33306197	    -15.40190271	    -41.48225538	     33.08495586	    -27.31896849	     89.50207483	     78.38631504	     88.53678001	      0.00000000	      0.00000000	    -70.64321039	    -14.66728664	    -17.14678134	    115.80670739	     87.97113149	      0.00000000	      0.00000000
      3.94500000	    -35.93455329	     -0.91671223	      1.04689205	     -0.38974880	      0.62130278	     -0.89336702	     95.12292399	    -12.29777554	     -2.63896698	     96.17893896	      1.67863916	     37.69825713	      0.00000000	      0.00000000	     95.05940987	    -15.36057946	     -0.02509187	     94.23838780	      1.64477015	     35.87256702	      0.00000000	      0.00000000	    -24.41858002	    -15.28788681	    -41.59336674	     33.11440146	    -27.28950587	     89.50591865	     78.37011017	     88.51272919	      0.00000000	      0.00000000	    -70.63896658	    -14.55472411	    -17.19991710	    115.71404609	     87.92580315	      0.00000000	      0.00000000
      3.95000000	    -35.32916238	     -0.91391204	      0.44046874	     -0.38847529	      0.62242223	     -0.89192506	     94.34672978	    -11.57219392	     -2.73655657	     96.08834021	      1.67705791	     37.77068766	      0.00000000	      0.00000000	     94.34015348	    -16.23004072	     -0.09472050	     94.42231856	      1.64798035	     36.06367110	      0.00000000	      0.00000000	    -24.90489641	    -15.58896843	    -40.99293139	     33.08357731	    -27.16161280	     89.50005584	     78.27264354	     88.47528786	      0.00000000	      0.00000000	    -70.59055109	    -14.80366837	    -17.18865991	    115.62641726	     88.04293983	      0.00000000	      0.00000000
      3.95500000	    -35.23309231	     -0.90667205	      0.44319371	     -0.38842011	      0.62248606	     -0.89201366	     94.25671238	    -11.55993273	     -2.70384183	     96.10688649	      1.67738160	     37.83571023	      0.00000000	      0.00000000	     94.23704535	    -16.24049062	     -0.13280880	     94.43626186	      1.64822370	     36.10237999	      0.00000000	      0.00000000	    -25.01831540	    -15.60312702	    -41.02218612	     33.11827101	    -27.13713652	     89.50415753	     78.27481234	     88.52216877	      0.00000000	      0.00000000	    -70.60148530	    -14.79909879	    -17.15747514	    115.68581436	     87.91939509	      0.00000000	      0.00000000
      3.96000000	    -35.88886347	     -1.12555741	      1.04651227	     -0.38987487	      0.62121945	     -0.89340419	     95.01441032	    -12.24150278	     -2.80718220	     96.14533279	      1.67805262	     37.71551683	      0.00000000	      0.00000000	     95.13893941	    -15.40067241	      0.16351250	     94.29640221	      1.64578269	     35.85287971	      0.00000000	      0.00000000	    -24.42873933	    -15.11483371	    -41.55069505	     33.15022578	    -27.28213184	     89.50848431	     78.37778760	     88.50643514	      0.00000000	      0.00000000	    -70.61257667	    -14.62918285	    -17.09237048	    115.71570740	     88.01823359	      0.00000000	      0.00000000
      3.96500000	    -35.20548966	     -1.03079107	      0.38316360	     -0.38846884	      0.62244063	     -0.89191350	     94.18641927	    -11.46655247	     -2.82461781	     96.07668679	      1.67685452	     37.81630904	      0.00000000	      0.00000000	     94.29777484	    -16.33832401	      0.00165998	     94.49154840	      1.64918863	     36.06069347	      0.00000000	      0.00000000	    -25.00570732	    -15.53463725	    -40.94156728	     33.12251772	    -27.13221406	     89.50367436	     78.26887554	     88.46705100	      0.00000000	      0.00000000	    -70.60304484	    -14.84680657	    -17.13324868	    115.65314720	     88.07647455	      0.00000000	      0.00000000
